# xmcd
#
# Track frame offsets:
#	150
#	10443
#	28017
#	39248
#	51612
#	62738
#	76065
#	88299
#	99524
#	110497
#	124777
#	138421
#	148707
#	161676
#	172842
#	188365
#	201404
#	212584
#	224898
#	237714
#
# Disc length: 3317 seconds
#
# Revision: 1
# Processed by: cddbd v1.5.1PL0 Copyright (c) Steve Scherf et al.
# Submitted via: audiograbber 1.82.02
#
DISCID=290cf314
DTITLE=Noel Partane - Country Heartaches
DYEAR=1900
DGENRE=Country
TTITLE0=China Doll
TTITLE1=Old Shep
TTITLE2=One Small Photograph
TTITLE3=I Can't Stop Loving You
TTITLE4=Heartaches By The Number
TTITLE5=Four Walls
TTITLE6=It Keeps Right On A Hurtin
TTITLE7=Take Good Care Of Her
TTITLE8=Burning Bridges
TTITLE9=Mother
TTITLE10=Nobody's Child
TTITLE11=Oh Lonesome Me
TTITLE12=Crying Time
TTITLE13=You're The Reason
TTITLE14=I Fall To Peices
TTITLE15=The Letter Edged In Black
TTITLE16=I Can't Help It
TTITLE17=Send Me The Pillow You Dreamed On
TTITLE18=Rockin Alone
TTITLE19=She Thinks I Care
EXTD=
EXTT0=
EXTT1=
EXTT2=
EXTT3=
EXTT4=
EXTT5=
EXTT6=
EXTT7=
EXTT8=
EXTT9=
EXTT10=
EXTT11=
EXTT12=
EXTT13=
EXTT14=
EXTT15=
EXTT16=
EXTT17=
EXTT18=
EXTT19=
PLAYORDER=
